<?xml version="1.0" encoding="utf-8"?>
<svg version="1.1" id="整体" xmlns="http://www.w3.org/2000/svg" xmlns:xlink="http://www.w3.org/1999/xlink" x="0px" y="0px"
	viewBox="0 0 666 666" style="background-color: white; enable-background:new 0 0 666 666;" xml:space="preserve">
	<style type="text/css">
		.st0 {
			fill: none;
			stroke: #000000;
			stroke-width: 5;
			stroke-miterlimit: 10;
		}

		.st1 {
			fill: #FF7043;
		}
	</style>
	<g id="天平">
		<path d="M350.7,129.2v41.9c0,86.5-1.3,176.8-1.3,263.3c0,110,91.3,176,191.8,176v34.2H128.4v-34.2c0,0,191.4,3.6,191.4-176
		c0-80-0.4-215.7,0.5-315" />
		<rect x="125" y="121.9" transform="matrix(0.9373 0.3484 -0.3484 0.9373 68.24 -107.4034)" width="415.3"
			height="28.3" />
		<g id="托盘-2">
			<polygon class="st0" points="21.6,291.2 151.9,78.4 284,291.2 		" />
			<path d="M303.4,291.2C244,350.6,60.7,350.4,2.2,291.9L303.4,291.2z" />
		</g>
		<g id="托盘-2_00000163787528877300344570000009473985437539716745_">
			<polygon class="st0" points="382,415.7 512.3,202.9 644.4,415.7 		" />
			<path d="M663.8,415.7c-59.4,59.4-242.6,59.3-301.2,0.7L663.8,415.7z" />
		</g>
	</g>
	<path class="st1" d="M509.5,301.2c0-2,1.6-3.6,3.6-3.6s3.6,1.6,3.6,3.6c0,2-1.6,3.6-3.6,3.6S509.5,303.2,509.5,301.2 M467,333.4
	c0-2,1.6-3.6,3.6-3.6c2,0,3.6,1.6,3.6,3.6c0,2-1.6,3.6-3.6,3.6C468.6,337,467,335.4,467,333.4 M552,333.6c0-2,1.6-3.6,3.6-3.6
	c2,0,3.6,1.6,3.6,3.6c0,2-1.6,3.6-3.6,3.6C553.5,337.2,552,335.6,552,333.6L552,333.6 M477.3,338.5c1.6-0.7,2.4-2.6,1.7-4.3
	l-1.6-3.6h6.2v28H471c-1.5-5.4-2-11.1-1.4-16.7L477.3,338.5z M503.3,339.2v-8.3h14.8c0.8,0,5.4,0.9,5.4,4.3c0,2.9-3.6,3.9-6.5,3.9
	L503.3,339.2z M483.1,383.6c0-2,1.6-3.6,3.6-3.6c2,0,3.6,1.6,3.6,3.6c0,2-1.6,3.6-3.6,3.6C484.7,387.2,483.1,385.6,483.1,383.6
	 M535.8,383.8c0-2,1.6-3.6,3.6-3.6s3.6,1.6,3.6,3.6s-1.6,3.6-3.6,3.6S535.8,385.8,535.8,383.8 M537,375.7c-1.8-0.4-3.5,0.7-3.9,2.5
	l-1.8,8.3c-11.6,5.3-25,5.2-36.6-0.2L493,378c-0.4-1.8-2.1-2.9-3.9-2.5l-7.4,1.6c-1.4-1.4-2.6-2.9-3.8-4.5h35.8
	c0.4,0,0.7-0.1,0.7-0.4v-12.7c0-0.4-0.3-0.4-0.7-0.4h-10.5v-8h11.3c1,0,5.5,0.3,7,6c0.5,1.8,1.4,7.5,2.1,9.4
	c0.7,2.1,3.4,6.2,6.3,6.2h18.5c-1.2,1.7-2.6,3.2-4.1,4.7L537,375.7z M556.8,342.3c0.3,2.5,0.3,5.1,0.1,7.6h-4.5
	c-0.5,0-0.6,0.3-0.6,0.7v2.1c0,4.9-2.7,5.9-5.1,6.2c-2.3,0.3-4.8-1-5.1-2.4c-1.3-7.6-3.6-9.2-7.2-12c4.4-2.8,9-6.9,9-12.5
	c0-6-4.1-9.7-6.9-11.6c-3.9-2.6-8.2-3.1-9.4-3.1h-46.5c6.4-7.2,15.1-12.1,24.5-13.8l5.5,5.8c1.2,1.3,3.3,1.3,4.6,0.1l6.1-5.9
	c12.7,2.4,23.6,10.2,30,21.4l-4.2,9.5c-0.7,1.6,0,3.6,1.7,4.3L556.8,342.3z M567.3,342.4l-0.1-1.5l4.3-4c0.9-0.8,0.6-2.5-0.6-2.9
	l-5.5-2.1l-0.4-1.4l3.5-4.8c0.7-1,0.1-2.5-1.1-2.7l-5.8-0.9l-0.7-1.3l2.5-5.4c0.5-1.1-0.4-2.5-1.6-2.5l-5.9,0.2l-0.9-1.1l1.4-5.8
	c0.3-1.2-0.9-2.4-2.1-2.1l-5.8,1.4l-1.1-0.9l0.2-5.9c0-1.2-1.4-2.1-2.4-1.6l-5.4,2.5l-1.3-0.7l-1-5.8c-0.2-1.2-1.7-1.8-2.7-1.1
	l-4.8,3.5l-1.4-0.4l-2.1-5.5c-0.4-1.1-2.1-1.5-2.9-0.6l-4,4.3l-1.5-0.1l-3.1-5c-0.6-1-2.3-1-2.9,0l-3.1,5l-1.5,0.1l-4-4.3
	c-0.8-0.9-2.5-0.6-2.9,0.6l-2.1,5.5l-1.4,0.4l-4.8-3.5c-1-0.7-2.5-0.1-2.7,1.1l-1,5.8l-1.3,0.7l-5.4-2.5c-1.1-0.5-2.5,0.4-2.4,1.6
	l0.2,5.9l-1.1,0.9l-5.8-1.4c-1.2-0.3-2.4,0.9-2.1,2.1l1.4,5.8l-0.9,1.1l-5.9-0.2c-1.2,0-2.1,1.4-1.6,2.5l2.5,5.4l-0.7,1.3l-5.8,0.9
	c-1.2,0.2-1.8,1.7-1.1,2.7l3.5,4.8l-0.4,1.4l-5.5,2.1c-1.1,0.4-1.5,2.1-0.6,2.9l4.3,4l-0.1,1.5l-5,3.1c-1,0.6-1,2.3,0,2.9l5,3.1
	l0.1,1.5l-4.3,4c-0.9,0.8-0.5,2.5,0.6,2.9l5.5,2.1l0.4,1.4l-3.5,4.8c-0.7,1-0.1,2.5,1.1,2.7l5.8,0.9l0.7,1.3l-2.5,5.4
	c-0.5,1.1,0.4,2.5,1.6,2.5l5.9-0.2l0.9,1.1l-1.4,5.8c-0.3,1.2,0.9,2.4,2.1,2.1l5.8-1.4l1.1,0.9l-0.2,5.9c0,1.2,1.4,2.1,2.4,1.6
	l5.4-2.5l1.3,0.7l1,5.8c0.2,1.2,1.7,1.8,2.7,1.1l4.8-3.5l1.4,0.4l2.1,5.5c0.4,1.1,2.1,1.5,2.9,0.6l4-4.3l1.5,0.1l3.1,5
	c0.6,1,2.3,1,2.9,0l3.1-5l1.5-0.1l4,4.3c0.8,0.9,2.5,0.5,2.9-0.6l2.1-5.5l1.4-0.4l4.8,3.5c1,0.7,2.5,0.1,2.7-1.1l1-5.8l1.3-0.7
	l5.4,2.5c1.1,0.5,2.5-0.4,2.4-1.6l-0.2-5.9l1.1-0.9l5.8,1.4c1.2,0.3,2.4-0.9,2.1-2.1l-1.4-5.8l0.9-1.1l5.9,0.2
	c1.2,0,2.1-1.4,1.6-2.5l-2.5-5.4l0.7-1.3l5.8-0.9c1.2-0.2,1.8-1.7,1.1-2.7l-3.5-4.8l0.4-1.4l5.5-2.1c1.1-0.4,1.5-2.1,0.6-2.9l-4.3-4
	l0.1-1.5l5-3.1c1-0.6,1-2.3,0-2.9L567.3,342.4z" />
</svg>